<svg width="410" height="404" viewBox="0 0 410 404" fill="none" xmlns="http://www.w3.org/2000/svg">
<path d="M296.5 133.5C307.191 151.912 304 187.5 304 187.5L327 193L240 307L216 288C199.2 293.2 181.333 293.167 174.5 292.5C52.5 275 38 174 81 120C115.4 76.8 170.333 102 193.5 120C211.5 94 256 103.167 276 111C276 111 290.531 123.22 296.5 133.5Z" fill="white"/>
<path d="M227.368 296.91C258.73 366.606 409.616 295.857 372.323 224.17C335.029 152.482 194.289 223.397 227.368 296.91Z" fill="#8CB4E4"/>
<path fill-rule="evenodd" clip-rule="evenodd" d="M105.017 109.768C81.9148 122.195 65.503 150.049 66.7297 186.636C68.4756 238.713 118.594 286.203 185.912 284.553C189.422 284.467 192.336 287.242 192.422 290.752C192.508 294.261 189.733 297.176 186.224 297.262C113.093 299.054 56.0411 247.218 54.0243 187.062C52.664 146.489 70.9418 113.662 98.9951 98.5722C126.046 84.0216 160.736 86.7233 192.828 112.512C210.523 97.6332 237.577 91.871 261.106 97.7037C274.041 100.91 286.196 107.682 295.233 118.671C304.297 129.692 309.892 144.552 310.352 163.329C310.438 166.839 307.663 169.753 304.154 169.839C300.644 169.925 297.73 167.15 297.644 163.641C297.243 147.306 292.44 135.288 285.414 126.746C278.362 118.171 268.737 112.693 258.048 110.043C236.352 104.665 211.441 111.186 197.589 125.417L193.38 129.742L188.843 125.763C158.857 99.4635 127.882 97.4687 105.017 109.768ZM104.678 146.738C108.161 146.303 111.338 148.775 111.772 152.258L114.37 173.066C114.804 176.549 112.333 179.726 108.85 180.16C105.366 180.595 102.19 178.124 101.755 174.64L99.1579 153.833C98.7231 150.349 101.194 147.173 104.678 146.738ZM132.421 143.275C135.905 142.84 139.081 145.312 139.516 148.795L142.113 169.603C142.548 173.086 140.076 176.263 136.593 176.697C133.11 177.132 129.933 174.661 129.498 171.177L126.901 150.37C126.467 146.886 128.938 143.71 132.421 143.275ZM112.579 189.892C114.734 187.121 118.728 186.623 121.499 188.778L129.3 194.848C132.071 197.004 132.569 200.998 130.414 203.768C128.258 206.539 124.264 207.037 121.494 204.882L113.692 198.812C110.921 196.656 110.423 192.662 112.579 189.892ZM199.495 184.378C202.789 183.164 206.443 184.851 207.656 188.145C209.189 192.306 213.572 198.461 220.013 203.93C226.394 209.348 234.021 213.431 241.506 214.388C244.988 214.834 247.45 218.018 247.004 221.5C246.559 224.982 243.375 227.444 239.893 226.998C229.198 225.63 219.349 220.043 211.785 213.62C204.281 207.249 198.25 199.391 195.727 192.539C194.514 189.245 196.201 185.591 199.495 184.378ZM300.933 178.707C321.424 180.021 340.633 189.509 351.338 211.903C365.982 242.537 348.637 272.73 323.672 291.806C298.668 310.912 262.98 321.494 235.1 311.649C212.889 303.805 191.188 277.02 201.603 237.282C202.493 233.886 205.967 231.855 209.363 232.745C212.759 233.635 214.79 237.109 213.9 240.505C205.229 273.588 223.101 293.929 239.333 299.662C261.773 307.586 292.99 299.252 315.954 281.705C338.958 264.127 350.646 239.93 339.869 217.385C331.507 199.894 316.908 192.47 300.12 191.393C283.003 190.295 263.835 195.898 248.112 204.584C245.039 206.281 241.172 205.166 239.474 202.093C237.777 199.021 238.892 195.154 241.965 193.456C259.189 183.941 280.771 177.414 300.933 178.707ZM293.767 230.673C295.923 227.902 299.916 227.404 302.687 229.559L310.488 235.629C313.259 237.785 313.758 241.779 311.602 244.549C309.446 247.32 305.453 247.818 302.682 245.663L294.88 239.593C292.11 237.437 291.611 233.443 293.767 230.673ZM266.889 241.071C269.045 238.301 273.039 237.802 275.809 239.958L283.611 246.028C286.381 248.184 286.88 252.177 284.724 254.948C282.568 257.719 278.575 258.217 275.804 256.061L268.003 249.991C265.232 247.836 264.734 243.842 266.889 241.071ZM240.011 251.47C242.167 248.699 246.161 248.201 248.931 250.357L256.733 256.427C259.504 258.583 260.002 262.576 257.846 265.347C255.691 268.117 251.697 268.616 248.926 266.46L241.125 260.39C238.354 258.234 237.856 254.241 240.011 251.47Z" fill="#2B2B31"/>
<path fill-rule="evenodd" clip-rule="evenodd" d="M34.6842 211.858C38.107 211.078 41.5136 213.222 42.2928 216.644C43.321 221.161 44.5485 225.483 45.9545 229.617C47.0849 232.941 45.307 236.551 41.9835 237.681C38.6599 238.812 35.0494 237.034 33.919 233.71C32.3693 229.154 31.0222 224.407 29.8974 219.466C29.1182 216.043 31.2613 212.637 34.6842 211.858ZM45.6804 246.127C48.7563 244.435 52.6213 245.557 54.3132 248.633C77.2905 290.406 121.236 308.339 154.245 309.693C157.752 309.837 160.479 312.797 160.336 316.304C160.192 319.812 157.232 322.538 153.724 322.395C117.34 320.903 68.7668 301.287 43.1745 254.76C41.4826 251.684 42.6045 247.819 45.6804 246.127Z" fill="#8CB4E4"/>
</svg>
